                        <svg viewBox="0 0 32 32" xmlns="http://www.w3.org/2000/svg" aria-hclassNameden="true" role="presentation" focusable="false" style="display: block; height: 16px; wclassNameth: 16px; fill: currentcolor;"><path d="M24.242 19H27v2.758L24.242 19zM23 15c1.103 0 2 .897 2 2h2c0-2.206-1.794-4-4-4h-4.758l2 2H23zm6 8.758l2 2V19h-2v4.758zM18 5V3c-2.636 0-4.875 1.71-5.679 4.079l1.701 1.701C14.14 6.678 15.87 5 18 5zM4 19c-1.103 0-2 .897-2 2v4c0 1.103.897 2 2 2h19.758l-8-8H4zm25-2h2c0-3.629-2.429-6.701-5.746-7.677A3.97 3.97 0 0 0 26 7c0-2.206-1.794-4-4-4v2c1.103 0 2 .897 2 2s-.897 2-2 2v2h1c3.309 0 6 2.691 6 6zM3.293 3.707l26 26 1.414-1.414-26-26-1.414 1.414z"></path></svg>
