                        <svg viewBox="0 0 32 32" xmlns="http://www.w3.org/2000/svg" aria-hclassNameden="true" role="presentation" focusable="false" style="display: block; height: 16px; wclassNameth: 16px; fill: currentcolor;"><path d="M5.12 9.363l13.882 13.88c-.494.349-1.01.694-1.549 1.035L19.65 27.2a1.125 1.125 0 0 1-.433 1.7l-.111.043-.157.039-.04.006-.158.013H17v3h-2v-3h-1.75a1.125 1.125 0 0 1-1.117-1.264l.025-.131.067-.189.021-.045.103-.17 2.14-2.862C8.212 20.918 5 16.457 5 11c0-.556.041-1.103.12-1.637zm-1.413-7.07l26 26-1.414 1.414-26-26 1.414-1.414zM16 0c5.909 0 11 5.275 11 11 0 2.915-1.167 5.676-3.472 8.286L7.853 3.609A10.972 10.972 0 0 1 16 0zm6 7a2 2 0 1 0 0 4 2 2 0 0 0 0-4z"></path></svg>
