                        <svg xmlns="http://www.w3.org/2000/svg" viewBox="0 0 16 16" aria-hclassNameden="true" role="presentation" focusable="false" style="display: block; height: 16px; wclassNameth: 16px; fill: currentcolor;"><path d="M8 .5a7.5 7.5 0 1 1 0 15 7.5 7.5 0 0 1 0-15zM5.846 9H4.515A3.632 3.632 0 0 0 7 11.485v-1.33A2.384 2.384 0 0 1 5.846 9zm5.64 0h-1.332a2.384 2.384 0 0 1-1.153 1.154v1.331A3.632 3.632 0 0 0 11.484 9zM8 7a1 1 0 1 0 0 2 1 1 0 0 0 0-2zM7 4.515A3.632 3.632 0 0 0 4.515 7h1.33A2.384 2.384 0 0 1 7 5.845zm2 0v1.33c.508.237.919.647 1.155 1.155h1.33A3.632 3.632 0 0 0 9 4.515zm3-1.265a.75.75 0 1 0 0 1.5.75.75 0 0 0 0-1.5z"></path></svg>
