<svg viewBox="0 0 1024 1024" role="img" aria-hidden="false" aria-label="네이버 블로그로 이동하기" focusable="false" style="height: 18px; width: 18px; display: block; fill: currentcolor;"><path d="m984 1024h-944c-22.1 0-40-17.9-40-40v-944c0-22.1 17.9-40 40-40h944c22.1 0 40 17.9 40 40v944c0 22.1-17.9 40-40 40z" fill="#00c73c"></path><path d="m757 203.2h-490.4c-70.4 0-127.5 57.1-127.5 127.5v303.5c0 70.7 57.3 127.9 127.9 127.9h173.8l58.7 101.6c5.4 9.3 18.9 9.3 24.2 0l58.7-101.6h174.2c70.6 0 128.5-57.8 128.5-128.5v-302.4c0-70.7-57.3-128-128.1-128z" fill="#fff"></path><g fill="#ff812c"><path d="m390.7 495.6c0 38.7-28 68.5-62.1 68.5-17.4 0-30.1-6-38.7-15.8v12.2h-38.9v-173.1h38.9v55.5c8.6-9.9 21.3-15.8 38.7-15.8 34 0 62.1 29.8 62.1 68.5zm-36.4 0c0-21.1-14-34.3-33.4-34.3s-33.4 13.2-33.4 34.3 14 34.3 33.4 34.3c19.3 0 33.4-13.2 33.4-34.3z"></path><path d="m477.6 495.6c0-38.7 30.6-68.5 68.8-68.5s68.8 29.9 68.8 68.5c0 38.7-30.6 68.5-68.8 68.5s-68.8-29.8-68.8-68.5zm101.1 0c0-19.9-14-33.2-32.3-33.2s-32.3 13.2-32.3 33.2c0 19.9 14 33.2 32.3 33.2 18.2 0 32.3-13.2 32.3-33.2z"></path><path d="m704.6 616.1c34.5 0 68.5-18.4 68.5-62.1v-123.3h-37.9v13.2c-8.6-10.6-21-16.9-37.9-16.9-36.9 0-63.9 30.1-63.9 66 0 35.8 27 65.9 63.9 65.9 16.9 0 29.3-6.2 37.9-16.9v12c0 18.4-11.2 27.8-29.3 27.8h-1.3zm-.7-90.5c-19.9 0-34-13.2-34-32.6s14-32.6 34-32.6c19.9 0 34 13.2 34 32.6s-14.1 32.6-34 32.6z"></path><path d="m394.3 382.7v35.1c13.4 2.6 21.3 11.8 21.3 27.4v115.3h38.9v-115.3c0-40.3-28.6-59.4-60.2-62.5z"></path></g></svg>