                        <svg viewBox="0 0 32 32" xmlns="http://www.w3.org/2000/svg" aria-hidden="true" role="presentation" focusable="false" style="display: block; height: 16px; width: 16px; fill: currentcolor;"><path d="m30 13c.2652 0 .5196.1054.7071.2929s.2929.4419.2929.7071v16c0 .2652-.1054.5196-.2929.7071s-.4419.2929-.7071.2929h-16c-.2652 0-.5196-.1054-.7071-.2929s-.2929-.4419-.2929-.7071v-6.758l3.2407241-3.244 2.0572759.002.248.796.134.405c.4006 1.164 1.0174 2.2419 1.818 3.177-.862.563-1.985 1.077-3.37 1.532l-1.086.339 1.072 1.762.606-.191c1.763-.576 3.19-1.256 4.279-2.05 1 .727 2.284 1.36 3.848 1.904l1.038.336 1.073-1.761-1.051-.328c-1.4-.458-2.535-.975-3.401-1.543.7985-.9363 1.4139-2.0143 1.814-3.178l.134-.405.247-.797 1.799.002v-2l-4.546-.001c-.1642-.4623-.381-.9042-.646-1.317-.1643-.2493-.3461-.4865-.544-.71l-.168-.187-1.793.654 3.439-3.439zm-1.7071068-10.70710678 1.4142136 1.41421356-26.00000002 26.00000002-1.41421356-1.4142136zm-4.6868932 17.70710678-.061.205-.113.341c-.3163.9202-.8024 1.7729-1.433 2.514-.5479-.644-.9861-1.3737-1.297-2.16l-.133-.354-.113-.341-.063-.205zm-5.606-19c.2652 0 .5196.10536.7071.29289.1875.18754.2929.44189.2929.70711v6.757l-2 2v-7.757h-14v14h7.757l-2 2h-6.757c-.26522 0-.51957-.1054-.70711-.2929-.18753-.1875-.29289-.4419-.29289-.7071v-16c0-.26522.10536-.51957.29289-.70711.18754-.18753.44189-.29289.70711-.29289zm.242 17 1.372-1.372.075.071c.435.416.75.776.941 1.071l.138.229zm-7.053-13 3.1973479 8.3827979-1.5563479 1.5442021-.733-1.927h-4.194l-.763 2h-2.138l3.809-10zm-1.189 2.496-1.335 3.504h2.67z"></path></svg>
